<svg width="1000" height="1000" viewBox="0 0 1000 1000" xmlns="http://www.w3.org/2000/svg"><defs/><path fill="#7d888e" transform="matrix(0.4554904323845059 0 0 0.4554904323845059 25.047440110312728 -4.728103553282574)" d="M 658.62532278572 1151.12314579642 L 658.62532278572 1025.52314579642 C 658.62532278572 1012.42314579642 650.32532278572 998.12314579642 639.02532278572 991.52314579642 L 495.82532278572 908.82314579642 C 484.42532278572 902.22314579642 467.92532278572 902.22314579642 456.52532278572 908.82314579642 L 343.22532278572 974.22314579642 C 338.92532278572 976.72314579642 336.22532278572 981.32314579642 336.22532278572 986.32314579642 C 336.22532278572 991.32314579642 338.92532278572 995.92314579642 343.22532278572 998.42314579642 L 416.12532278572 1040.52314579642 C 420.42532278572 1043.02314579642 425.82532278572 1043.02314579642 430.12532278572 1040.52314579642 L 475.62532278572 1014.22314579642 C 475.92532278572 1014.22314579642 476.32532278572 1014.22314579642 476.62532278572 1014.22314579642 L 557.12532278572 1060.72314579642 C 557.32532278572 1060.92314579642 557.52532278572 1061.32314579642 557.62532278572 1061.62314579642 L 557.62532278572 1102.32314579642 C 546.02532278572 1107.62314579642 537.92532278572 1119.32314579642 537.92532278572 1132.92314579642 C 537.92532278572 1151.52314579642 553.02532278572 1166.62314579642 571.62532278572 1166.62314579642 C 590.22532278572 1166.62314579642 605.32532278572 1151.52314579642 605.32532278572 1132.92314579642 C 605.32532278572 1119.32314579642 597.22532278572 1107.62314579642 585.62532278572 1102.32314579642 L 585.62532278572 1061.22314579642 C 585.62532278572 1051.62314579642 579.82532278572 1041.52314579642 571.42532278572 1036.62314579642 L 490.32532278572 989.82314579642 C 482.02532278572 985.02314579642 470.32532278572 985.02314579642 462.02532278572 989.82314579642 L 423.22532278572 1012.22314579642 L 378.32532278572 986.32314579642 L 470.62532278572 933.02314579642 C 473.22532278572 931.52314579642 479.22532278572 931.52314579642 481.82532278572 933.02314579642 L 625.02532278572 1015.72314579642 C 627.62532278572 1017.22314579642 630.62532278572 1022.42314579642 630.62532278572 1025.42314579642 L 630.62532278572 1151.12314579642 C 619.02532278572 1156.42314579642 610.92532278572 1168.12314579642 610.92532278572 1181.72314579642 C 610.92532278572 1200.32314579642 626.02532278572 1215.42314579642 644.62532278572 1215.42314579642 C 663.22532278572 1215.42314579642 678.32532278572 1200.32314579642 678.32532278572 1181.72314579642 C 678.32532278572 1168.22314579642 670.22532278572 1156.52314579642 658.62532278572 1151.12314579642 Z M 571.72532278572 1148.42314579642 C 563.22532278572 1148.42314579642 556.32532278572 1141.52314579642 556.32532278572 1133.02314579642 C 556.32532278572 1124.52314579642 563.22532278572 1117.62314579642 571.72532278572 1117.62314579642 C 580.22532278572 1117.62314579642 587.12532278572 1124.52314579642 587.12532278572 1133.02314579642 C 587.12532278572 1141.42314579642 580.22532278572 1148.42314579642 571.72532278572 1148.42314579642 Z M 644.62532278572 1197.22314579642 C 636.12532278572 1197.22314579642 629.22532278572 1190.32314579642 629.22532278572 1181.82314579642 C 629.22532278572 1173.32314579642 636.12532278572 1166.42314579642 644.62532278572 1166.42314579642 C 653.12532278572 1166.42314579642 660.02532278572 1173.32314579642 660.02532278572 1181.82314579642 C 660.02532278572 1190.22314579642 653.12532278572 1197.22314579642 644.62532278572 1197.22314579642 Z"/><path fill="#3b3835" transform="matrix(0.4554904323845059 0 0 0.4554904323845059 25.047440110312728 -4.728103553282574)" d="M 609.12532278572 1217.82314579642 L 536.22532278572 1175.72314579642 C 531.92532278572 1173.22314579642 526.52532278572 1173.22314579642 522.22532278572 1175.72314579642 L 476.72532278572 1202.02314579642 C 476.42532278572 1202.02314579642 476.02532278572 1202.02314579642 475.72532278572 1202.02314579642 L 395.22532278572 1155.52314579642 C 395.02532278572 1155.32314579642 394.82532278572 1154.92314579642 394.72532278572 1154.62314579642 L 394.72532278572 1114.02314579642 C 406.42532278572 1108.72314579642 414.52532278572 1097.02314579642 414.52532278572 1083.32314579642 C 414.52532278572 1064.72314579642 399.42532278572 1049.62314579642 380.82532278572 1049.62314579642 C 362.22532278572 1049.62314579642 347.12532278572 1064.72314579642 347.12532278572 1083.32314579642 C 347.12532278572 1096.82314579642 355.12532278572 1108.52314579642 366.62532278572 1113.82314579642 L 366.62532278572 1154.92314579642 C 366.62532278572 1164.52314579642 372.42532278572 1174.62314579642 380.82532278572 1179.52314579642 L 462.02532278572 1226.42314579642 C 470.32532278572 1231.22314579642 482.02532278572 1231.22314579642 490.32532278572 1226.42314579642 L 529.12532278572 1204.02314579642 L 574.02532278572 1229.92314579642 L 481.82532278572 1283.22314579642 C 479.22532278572 1284.72314579642 473.22532278572 1284.72314579642 470.62532278572 1283.22314579642 L 327.42532278572 1200.52314579642 C 324.82532278572 1199.02314579642 321.82532278572 1193.82314579642 321.82532278572 1190.82314579642 L 321.82532278572 1065.22314579642 C 333.52532278572 1059.92314579642 341.72532278572 1048.22314579642 341.72532278572 1034.52314579642 C 341.72532278572 1015.92314579642 326.62532278572 1000.82314579642 308.02532278572 1000.82314579642 C 289.42532278572 1000.82314579642 274.32532278572 1015.92314579642 274.32532278572 1034.52314579642 C 274.32532278572 1048.02314579642 282.32532278572 1059.72314579642 293.82532278572 1065.02314579642 L 293.82532278572 1190.72314579642 C 293.82532278572 1203.82314579642 302.12532278572 1218.12314579642 313.42532278572 1224.72314579642 L 456.62532278572 1307.42314579642 C 462.32532278572 1310.72314579642 469.32532278572 1312.32314579642 476.22532278572 1312.32314579642 C 483.12532278572 1312.32314579642 490.22532278572 1310.72314579642 495.82532278572 1307.42314579642 L 609.12532278572 1242.02314579642 C 613.42532278572 1239.52314579642 616.12532278572 1234.92314579642 616.12532278572 1229.92314579642 C 616.12532278572 1224.92314579642 613.42532278572 1220.32314579642 609.12532278572 1217.82314579642 Z M 380.82532278572 1067.92314579642 C 389.32532278572 1067.92314579642 396.22532278572 1074.82314579642 396.22532278572 1083.32314579642 C 396.22532278572 1091.82314579642 389.32532278572 1098.72314579642 380.82532278572 1098.72314579642 C 372.32532278572 1098.72314579642 365.42532278572 1091.82314579642 365.42532278572 1083.32314579642 C 365.42532278572 1074.82314579642 372.32532278572 1067.92314579642 380.82532278572 1067.92314579642 Z M 307.92532278572 1019.12314579642 C 316.42532278572 1019.12314579642 323.32532278572 1026.02314579642 323.32532278572 1034.52314579642 C 323.32532278572 1043.02314579642 316.42532278572 1049.92314579642 307.92532278572 1049.92314579642 C 299.42532278572 1049.92314579642 292.52532278572 1043.02314579642 292.52532278572 1034.52314579642 C 292.52532278572 1026.02314579642 299.42532278572 1019.12314579642 307.92532278572 1019.12314579642 Z"/><path id="text" fill="#3b3835" transform="matrix(0.665583806288517 0 0 0.665583806288517 250.35837580351748 30.297934284430152)" d="M 216.06180157599 681.4534843861 L 202.14180157599 681.4534843861 L 198.30180157599 669.6454843861 L 175.35780157599 669.6454843861 L 171.61380157599 681.4534843861 L 157.69380157599 681.4534843861 L 179.58180157599 618.8614843861 C 180.54180157599 616.6854843861 181.61380157599 615.1814843861 182.79780157599 614.3494843861 C 183.98180157599 613.5174843861 185.43780157599 613.1014843861 187.16580157599 613.1014843861 C 188.89380157599 613.1014843861 190.28580157599 613.4854843861 191.34180157599 614.2534843861 C 192.39780157599 615.0214843861 193.34180157599 616.5574843861 194.17380157599 618.8614843861 L 216.06180157599 681.4534843861 Z M 195.22980157599 658.4134843861 L 187.16580157599 631.3414843861 L 178.71780157599 658.4134843861 L 195.22980157599 658.4134843861 Z M 267.61380157599 681.4534843861 L 247.26180157599 681.4534843861 C 239.58180157599 681.4534843861 234.02980157599 679.9654843861 230.60580157599 676.9894843861 C 227.18180157599 674.0134843861 225.46980157599 669.1654843861 225.46980157599 662.4454843861 L 225.46980157599 613.1014843861 L 238.81380157599 613.1014843861 L 238.81380157599 662.4454843861 C 238.81380157599 665.1334843861 239.42180157599 666.9894843861 240.63780157599 668.0134843861 C 241.85380157599 669.0374843861 244.06180157599 669.5494843861 247.26180157599 669.5494843861 L 267.61380157599 669.5494843861 L 267.61380157599 681.4534843861 Z M 327.80580157599 661.7734843861 C 327.80580157599 668.1094843861 326.09380157599 672.9734843861 322.66980157599 676.3654843861 C 319.24580157599 679.7574843861 314.46180157599 681.4534843861 308.31780157599 681.4534843861 L 299.10180157599 681.4534843861 C 291.54980157599 681.4534843861 286.18980157599 680.1414843861 283.02180157599 677.5174843861 C 279.85380157599 674.8934843861 278.26980157599 670.3494843861 278.26980157599 663.8854843861 L 278.26980157599 613.1014843861 L 307.16580157599 613.1014843861 C 313.69380157599 613.1014843861 318.60580157599 614.7334843861 321.90180157599 617.9974843861 C 325.19780157599 621.2614843861 326.84580157599 625.8694843861 326.84580157599 631.8214843861 C 326.84580157599 635.2774843861 325.96580157599 638.2214843861 324.20580157599 640.6534843861 C 322.44580157599 643.0854843861 320.50980157599 644.8134843861 318.39780157599 645.8374843861 C 324.66980157599 648.7814843861 327.80580157599 654.0934843861 327.80580157599 661.7734843861 Z M 306.10980157599 639.7894843861 C 311.03780157599 639.7894843861 313.50180157599 637.3254843861 313.50180157599 632.3974843861 C 313.50180157599 627.4694843861 311.03780157599 625.0054843861 306.10980157599 625.0054843861 L 291.61380157599 625.0054843861 L 291.61380157599 639.7894843861 L 306.10980157599 639.7894843861 Z M 314.46180157599 661.1014843861 C 314.46180157599 658.0294843861 313.91780157599 655.7094843861 312.82980157599 654.1414843861 C 311.74180157599 652.5734843861 309.78980157599 651.7894843861 306.97380157599 651.7894843861 L 291.61380157599 651.7894843861 L 291.61380157599 662.5414843861 C 291.61380157599 665.1654843861 292.26980157599 666.9894843861 293.58180157599 668.0134843861 C 294.89380157599 669.0374843861 297.05380157599 669.5494843861 300.06180157599 669.5494843861 L 306.97380157599 669.5494843861 C 311.96580157599 669.5494843861 314.46180157599 666.7334843861 314.46180157599 661.1014843861 Z M 386.46180157599 681.4534843861 L 362.26980157599 681.4534843861 C 354.58980157599 681.4534843861 349.19780157599 680.1254843861 346.09380157599 677.4694843861 C 342.98980157599 674.8134843861 341.43780157599 670.1254843861 341.43780157599 663.4054843861 L 341.43780157599 613.1014843861 L 386.46180157599 613.1014843861 L 386.46180157599 625.0054843861 L 354.78180157599 625.0054843861 L 354.78180157599 641.0374843861 L 376.95780157599 641.0374843861 L 375.99780157599 652.9414843861 L 354.78180157599 652.9414843861 L 354.78180157599 662.4454843861 C 354.78180157599 665.1334843861 355.38980157599 666.9894843861 356.60580157599 668.0134843861 C 357.82180157599 669.0374843861 360.02980157599 669.5494843861 363.22980157599 669.5494843861 L 386.46180157599 669.5494843861 L 386.46180157599 681.4534843861 Z M 451.26180157599 681.4534843861 L 435.80580157599 681.4534843861 L 422.46180157599 656.1094843861 L 412.86180157599 656.1094843861 L 412.86180157599 681.4534843861 L 399.51780157599 681.4534843861 L 399.51780157599 627.7894843861 C 399.51780157599 622.6694843861 400.70180157599 618.9414843861 403.06980157599 616.6054843861 C 405.43780157599 614.2694843861 409.40580157599 613.1014843861 414.97380157599 613.1014843861 L 426.30180157599 613.1014843861 C 433.08580157599 613.1014843861 438.47780157599 615.1654843861 442.47780157599 619.2934843861 C 446.47780157599 623.4214843861 448.47780157599 628.6534843861 448.47780157599 634.9894843861 C 448.47780157599 639.5974843861 447.27780157599 643.5814843861 444.87780157599 646.9414843861 C 442.47780157599 650.3014843861 439.51780157599 652.6214843861 435.99780157599 653.9014843861 L 451.26180157599 681.4534843861 Z M 432.39780157599 642.0454843861 C 434.22180157599 640.0934843861 435.13380157599 637.6614843861 435.13380157599 634.7494843861 C 435.13380157599 631.8374843861 434.25380157599 629.4854843861 432.49380157599 627.6934843861 C 430.73380157599 625.9014843861 428.38180157599 625.0054843861 425.43780157599 625.0054843861 L 418.81380157599 625.0054843861 C 414.84580157599 625.0054843861 412.86180157599 627.0214843861 412.86180157599 631.0534843861 L 412.86180157599 644.9734843861 L 425.43780157599 644.9734843861 C 428.25380157599 644.9734843861 430.57380157599 643.9974843861 432.39780157599 642.0454843861 Z M 506.74980157599 625.0054843861 L 488.41380157599 625.0054843861 L 488.41380157599 681.4534843861 L 475.06980157599 681.4534843861 L 475.06980157599 625.0054843861 L 456.82980157599 625.0054843861 L 456.82980157599 613.1014843861 L 506.74980157599 613.1014843861 L 506.74980157599 625.0054843861 Z M 567.22980157599 644.1094843861 L 567.22980157599 649.2934843861 C 567.22980157599 660.7494843861 565.06980157599 669.0694843861 560.74980157599 674.2534843861 C 556.42980157599 679.4374843861 549.50180157599 682.0294843861 539.96580157599 682.0294843861 C 530.42980157599 682.0294843861 523.53380157599 679.4374843861 519.27780157599 674.2534843861 C 515.02180157599 669.0694843861 512.89380157599 660.6534843861 512.89380157599 649.0054843861 L 512.89380157599 644.0134843861 C 512.89380157599 633.3894843861 515.05380157599 625.4854843861 519.37380157599 620.3014843861 C 523.69380157599 615.1174843861 530.54180157599 612.5254843861 539.91780157599 612.5254843861 C 549.29380157599 612.5254843861 556.18980157599 615.1494843861 560.60580157599 620.3974843861 C 565.02180157599 625.6454843861 567.22980157599 633.5494843861 567.22980157599 644.1094843861 Z M 553.88580157599 649.0054843861 L 553.88580157599 645.4534843861 C 553.88580157599 639.3094843861 553.11780157599 634.4134843861 551.58180157599 630.7654843861 C 549.78980157599 626.5414843861 545.94980157599 624.4294843861 540.06180157599 624.4294843861 C 534.10980157599 624.4294843861 530.23780157599 626.5414843861 528.44580157599 630.7654843861 C 526.97380157599 634.2214843861 526.23780157599 639.1174843861 526.23780157599 645.4534843861 L 526.23780157599 649.0054843861 C 526.23780157599 657.2614843861 527.38980157599 662.8294843861 529.69380157599 665.7094843861 C 530.58980157599 666.9254843861 531.91780157599 667.9654843861 533.67780157599 668.8294843861 C 535.43780157599 669.6934843861 537.54980157599 670.1254843861 540.01380157599 670.1254843861 C 542.47780157599 670.1254843861 544.57380157599 669.7094843861 546.30180157599 668.8774843861 C 548.02980157599 668.0454843861 549.37380157599 667.0214843861 550.33380157599 665.8054843861 C 551.29380157599 664.5894843861 552.02980157599 662.9894843861 552.54180157599 661.0054843861 C 553.43780157599 657.8694843861 553.88580157599 653.8694843861 553.88580157599 649.0054843861 Z M 596.98980157599 649.2934843861 L 596.98980157599 640.8454843861 C 596.98980157599 631.9494843861 599.32580157599 625.0054843861 603.99780157599 620.0134843861 C 608.66980157599 615.0214843861 615.13380157599 612.5254843861 623.38980157599 612.5254843861 C 631.64580157599 612.5254843861 638.26980157599 615.0214843861 643.26180157599 620.0134843861 C 646.78180157599 623.5334843861 648.54180157599 628.8134843861 648.54180157599 635.8534843861 L 636.06180157599 635.8534843861 C 636.06180157599 628.2374843861 631.99780157599 624.4294843861 623.86980157599 624.4294843861 C 621.43780157599 624.4294843861 619.37380157599 624.8934843861 617.67780157599 625.8214843861 C 615.98180157599 626.7494843861 614.71780157599 627.8214843861 613.88580157599 629.0374843861 C 613.05380157599 630.2534843861 612.41380157599 632.0454843861 611.96580157599 634.4134843861 C 611.51780157599 636.7814843861 611.26180157599 638.7654843861 611.19780157599 640.3654843861 C 611.13380157599 641.9654843861 611.10180157599 644.1094843861 611.10180157599 646.7974843861 C 611.10180157599 649.4854843861 611.11780157599 651.2934843861 611.14980157599 652.2214843861 C 611.18180157599 653.1494843861 611.27780157599 654.6534843861 611.43780157599 656.7334843861 C 611.59780157599 658.8134843861 611.85380157599 660.3014843861 612.20580157599 661.1974843861 C 612.55780157599 662.0934843861 613.06980157599 663.2454843861 613.74180157599 664.6534843861 C 614.41380157599 666.0614843861 615.26180157599 667.0534843861 616.28580157599 667.6294843861 C 618.90980157599 669.2934843861 621.88580157599 670.1254843861 625.21380157599 670.1254843861 C 630.78180157599 670.1254843861 634.71780157599 667.7574843861 637.02180157599 663.0214843861 L 637.02180157599 658.4134843861 L 628.76580157599 658.4134843861 L 628.76580157599 647.2774843861 L 648.44580157599 647.2774843861 L 648.44580157599 667.9174843861 C 646.46180157599 672.5894843861 643.32580157599 676.1094843861 639.03780157599 678.4774843861 C 634.74980157599 680.8454843861 629.88580157599 682.0294843861 624.44580157599 682.0294843861 C 614.78180157599 682.0294843861 607.78980157599 679.3254843861 603.46980157599 673.9174843861 C 599.14980157599 668.5094843861 596.98980157599 660.3014843861 596.98980157599 649.2934843861 Z M 712.47780157599 644.1094843861 L 712.47780157599 649.2934843861 C 712.47780157599 660.7494843861 710.31780157599 669.0694843861 705.99780157599 674.2534843861 C 701.67780157599 679.4374843861 694.74980157599 682.0294843861 685.21380157599 682.0294843861 C 675.67780157599 682.0294843861 668.78180157599 679.4374843861 664.52580157599 674.2534843861 C 660.26980157599 669.0694843861 658.14180157599 660.6534843861 658.14180157599 649.0054843861 L 658.14180157599 644.0134843861 C 658.14180157599 633.3894843861 660.30180157599 625.4854843861 664.62180157599 620.3014843861 C 668.94180157599 615.1174843861 675.78980157599 612.5254843861 685.16580157599 612.5254843861 C 694.54180157599 612.5254843861 701.43780157599 615.1494843861 705.85380157599 620.3974843861 C 710.26980157599 625.6454843861 712.47780157599 633.5494843861 712.47780157599 644.1094843861 Z M 699.13380157599 649.0054843861 L 699.13380157599 645.4534843861 C 699.13380157599 639.3094843861 698.36580157599 634.4134843861 696.82980157599 630.7654843861 C 695.03780157599 626.5414843861 691.19780157599 624.4294843861 685.30980157599 624.4294843861 C 679.35780157599 624.4294843861 675.48580157599 626.5414843861 673.69380157599 630.7654843861 C 672.22180157599 634.2214843861 671.48580157599 639.1174843861 671.48580157599 645.4534843861 L 671.48580157599 649.0054843861 C 671.48580157599 657.2614843861 672.63780157599 662.8294843861 674.94180157599 665.7094843861 C 675.83780157599 666.9254843861 677.16580157599 667.9654843861 678.92580157599 668.8294843861 C 680.68580157599 669.6934843861 682.79780157599 670.1254843861 685.26180157599 670.1254843861 C 687.72580157599 670.1254843861 689.82180157599 669.7094843861 691.54980157599 668.8774843861 C 693.27780157599 668.0454843861 694.62180157599 667.0214843861 695.58180157599 665.8054843861 C 696.54180157599 664.5894843861 697.27780157599 662.9894843861 697.78980157599 661.0054843861 C 698.68580157599 657.8694843861 699.13380157599 653.8694843861 699.13380157599 649.0054843861 Z M 774.68580157599 640.6534843861 L 762.39780157599 666.5734843861 C 760.60580157599 670.0294843861 758.38180157599 671.7574843861 755.72580157599 671.7574843861 C 753.06980157599 671.7574843861 750.84580157599 669.9334843861 749.05380157599 666.2854843861 L 736.57380157599 640.6534843861 L 736.57380157599 681.4534843861 L 723.22980157599 681.4534843861 L 723.22980157599 613.1014843861 L 736.38180157599 613.1014843861 L 755.67780157599 652.5574843861 L 774.87780157599 613.1014843861 L 788.02980157599 613.1014843861 L 788.02980157599 681.4534843861 L 774.68580157599 681.4534843861 L 774.68580157599 640.6534843861 Z M 847.06980157599 681.4534843861 L 822.87780157599 681.4534843861 C 815.19780157599 681.4534843861 809.80580157599 680.1254843861 806.70180157599 677.4694843861 C 803.59780157599 674.8134843861 802.04580157599 670.1254843861 802.04580157599 663.4054843861 L 802.04580157599 613.1014843861 L 847.06980157599 613.1014843861 L 847.06980157599 625.0054843861 L 815.38980157599 625.0054843861 L 815.38980157599 641.0374843861 L 837.56580157599 641.0374843861 L 836.60580157599 652.9414843861 L 815.38980157599 652.9414843861 L 815.38980157599 662.4454843861 C 815.38980157599 665.1334843861 815.99780157599 666.9894843861 817.21380157599 668.0134843861 C 818.42980157599 669.0374843861 820.63780157599 669.5494843861 823.83780157599 669.5494843861 L 847.06980157599 669.5494843861 L 847.06980157599 681.4534843861 Z M 900.92580157599 681.4534843861 L 866.17380157599 681.4534843861 C 862.65380157599 681.4534843861 859.96580157599 680.6214843861 858.10980157599 678.9574843861 C 856.25380157599 677.2934843861 855.32580157599 675.1174843861 855.32580157599 672.4294843861 C 855.32580157599 669.7414843861 856.31780157599 666.9254843861 858.30180157599 663.9814843861 L 885.18180157599 625.0054843861 L 857.24580157599 625.0054843861 L 857.24580157599 613.1014843861 L 900.92580157599 613.1014843861 L 900.92580157599 623.6614843861 L 869.72580157599 669.5494843861 L 900.92580157599 669.5494843861 L 900.92580157599 681.4534843861 Z"/><path id="text" fill="#7d888e" transform="matrix(0.665583806288517 0 0 0.665583806288517 249.75685443858424 96.59490687336205)" d="M 158.59755157599 614.4222343861 L 166.98817657599 614.4222343861 L 176.41005157599 672.7347343861 L 195.34755157599 614.4222343861 L 204.01942657599 614.4222343861 L 224.31630157599 672.7347343861 L 234.95692657599 614.4222343861 L 242.97255157599 614.4222343861 L 230.36317657599 681.4534843861 L 218.55067657599 681.4534843861 L 199.61317657599 625.2972343861 L 181.28505157599 681.4534843861 L 169.61317657599 681.4534843861 L 158.59755157599 614.4222343861 Z M 272.64442657599 632.2347343861 C 286.64442657599 632.2347343861 293.64442657599 639.1566093861 293.64442657599 653.0003593861 C 293.64442657599 654.9691093861 293.50380157599 657.0784843861 293.22255157599 659.3284843861 L 258.67567657599 659.3284843861 C 258.67567657599 669.3909843861 264.55067657599 674.4222343861 276.30067657599 674.4222343861 C 281.89442657599 674.4222343861 286.86317657599 673.7972343861 291.20692657599 672.5472343861 L 291.20692657599 679.5784843861 C 286.86317657599 680.8284843861 281.58192657599 681.4534843861 275.36317657599 681.4534843861 C 258.45692657599 681.4534843861 250.00380157599 673.0628593861 250.00380157599 656.2816093861 C 250.00380157599 640.2503593861 257.55067657599 632.2347343861 272.64442657599 632.2347343861 Z M 258.67567657599 652.1097343861 L 285.30067657599 652.1097343861 C 285.11317657599 643.4847343861 280.89442657599 639.1722343861 272.64442657599 639.1722343861 C 263.89442657599 639.1722343861 259.23817657599 643.4847343861 258.67567657599 652.1097343861 Z M 313.98817657599 672.8753593861 C 316.83192657599 673.7816093861 320.28505157599 674.2347343861 324.34755157599 674.2347343861 C 335.28505157599 674.2347343861 340.75380157599 668.0003593861 340.75380157599 655.5316093861 C 340.75380157599 645.0003593861 335.80067657599 639.7347343861 325.89442657599 639.7347343861 C 321.39442657599 639.7347343861 317.42567657599 640.5784843861 313.98817657599 642.2659843861 L 313.98817657599 672.8753593861 Z M 305.31630157599 614.4222343861 L 313.98817657599 614.4222343861 L 313.98817657599 634.5784843861 C 317.70692657599 633.0159843861 321.69130157599 632.2347343861 325.94130157599 632.2347343861 C 341.50380157599 632.2347343861 349.28505157599 640.1097343861 349.28505157599 655.8597343861 C 349.28505157599 672.9222343861 341.11317657599 681.4534843861 324.76942657599 681.4534843861 C 317.70692657599 681.4534843861 311.22255157599 680.7816093861 305.31630157599 679.4378593861 L 305.31630157599 614.4222343861 Z M 409.75380157599 674.4222343861 C 426.16005157599 674.4222343861 434.36317657599 664.9847343861 434.36317657599 646.1097343861 C 434.36317657599 629.6722343861 426.16005157599 621.4534843861 409.75380157599 621.4534843861 L 394.05067657599 621.4534843861 L 394.05067657599 674.4222343861 L 409.75380157599 674.4222343861 Z M 385.37880157599 681.4534843861 L 385.37880157599 614.4222343861 L 409.75380157599 614.4222343861 C 431.94130157599 614.4222343861 443.03505157599 624.9847343861 443.03505157599 646.1097343861 C 443.03505157599 669.6722343861 431.94130157599 681.4534843861 409.75380157599 681.4534843861 L 385.37880157599 681.4534843861 Z M 475.05067657599 632.2347343861 C 489.05067657599 632.2347343861 496.05067657599 639.1566093861 496.05067657599 653.0003593861 C 496.05067657599 654.9691093861 495.91005157599 657.0784843861 495.62880157599 659.3284843861 L 461.08192657599 659.3284843861 C 461.08192657599 669.3909843861 466.95692657599 674.4222343861 478.70692657599 674.4222343861 C 484.30067657599 674.4222343861 489.26942657599 673.7972343861 493.61317657599 672.5472343861 L 493.61317657599 679.5784843861 C 489.26942657599 680.8284843861 483.98817657599 681.4534843861 477.76942657599 681.4534843861 C 460.86317657599 681.4534843861 452.41005157599 673.0628593861 452.41005157599 656.2816093861 C 452.41005157599 640.2503593861 459.95692657599 632.2347343861 475.05067657599 632.2347343861 Z M 461.08192657599 652.1097343861 L 487.70692657599 652.1097343861 C 487.51942657599 643.4847343861 483.30067657599 639.1722343861 475.05067657599 639.1722343861 C 466.30067657599 639.1722343861 461.64442657599 643.4847343861 461.08192657599 652.1097343861 Z M 500.69130157599 632.2347343861 L 510.06630157599 632.2347343861 L 524.17567657599 670.8128593861 L 538.19130157599 632.2347343861 L 547.56630157599 632.2347343861 L 527.55067657599 681.4534843861 L 519.48817657599 681.4534843861 L 500.69130157599 632.2347343861 Z M 574.89442657599 632.2347343861 C 588.89442657599 632.2347343861 595.89442657599 639.1566093861 595.89442657599 653.0003593861 C 595.89442657599 654.9691093861 595.75380157599 657.0784843861 595.47255157599 659.3284843861 L 560.92567657599 659.3284843861 C 560.92567657599 669.3909843861 566.80067657599 674.4222343861 578.55067657599 674.4222343861 C 584.14442657599 674.4222343861 589.11317657599 673.7972343861 593.45692657599 672.5472343861 L 593.45692657599 679.5784843861 C 589.11317657599 680.8284843861 583.83192657599 681.4534843861 577.61317657599 681.4534843861 C 560.70692657599 681.4534843861 552.25380157599 673.0628593861 552.25380157599 656.2816093861 C 552.25380157599 640.2503593861 559.80067657599 632.2347343861 574.89442657599 632.2347343861 Z M 560.92567657599 652.1097343861 L 587.55067657599 652.1097343861 C 587.36317657599 643.4847343861 583.14442657599 639.1722343861 574.89442657599 639.1722343861 C 566.14442657599 639.1722343861 561.48817657599 643.4847343861 560.92567657599 652.1097343861 Z M 616.70692657599 614.4222343861 L 616.70692657599 681.4534843861 L 608.03505157599 681.4534843861 L 608.03505157599 614.4222343861 L 616.70692657599 614.4222343861 Z M 652.33192657599 674.4222343861 C 662.17567657599 674.4222343861 667.09755157599 668.5003593861 667.09755157599 656.6566093861 C 667.09755157599 645.0628593861 662.17567657599 639.2659843861 652.33192657599 639.2659843861 C 642.48817657599 639.2659843861 637.56630157599 645.0628593861 637.56630157599 656.6566093861 C 637.56630157599 668.5003593861 642.48817657599 674.4222343861 652.33192657599 674.4222343861 Z M 628.89442657599 656.8441093861 C 628.89442657599 640.4378593861 636.70692657599 632.2347343861 652.33192657599 632.2347343861 C 667.95692657599 632.2347343861 675.76942657599 640.4378593861 675.76942657599 656.8441093861 C 675.76942657599 673.2191093861 667.95692657599 681.4066093861 652.33192657599 681.4066093861 C 636.76942657599 681.4066093861 628.95692657599 673.2191093861 628.89442657599 656.8441093861 Z M 696.16005157599 671.4222343861 C 699.56630157599 673.1097343861 703.36317657599 673.9534843861 707.55067657599 673.9534843861 C 717.76942657599 673.9534843861 722.87880157599 667.8128593861 722.87880157599 655.5316093861 C 722.87880157599 644.8128593861 717.80067657599 639.4534843861 707.64442657599 639.4534843861 C 703.26942657599 639.4534843861 699.44130157599 639.8284843861 696.16005157599 640.5784843861 L 696.16005157599 671.4222343861 Z M 687.48817657599 634.2503593861 C 694.01942657599 632.9066093861 700.76942657599 632.2347343861 707.73817657599 632.2347343861 C 723.51942657599 632.2347343861 731.41005157599 640.0316093861 731.41005157599 655.6253593861 C 731.41005157599 672.8441093861 723.47255157599 681.4534843861 707.59755157599 681.4534843861 C 703.66005157599 681.4534843861 699.84755157599 680.6722343861 696.16005157599 679.1097343861 L 696.16005157599 699.2659843861 L 687.48817657599 699.2659843861 L 687.48817657599 634.2503593861 Z M 763.42567657599 632.2347343861 C 777.42567657599 632.2347343861 784.42567657599 639.1566093861 784.42567657599 653.0003593861 C 784.42567657599 654.9691093861 784.28505157599 657.0784843861 784.00380157599 659.3284843861 L 749.45692657599 659.3284843861 C 749.45692657599 669.3909843861 755.33192657599 674.4222343861 767.08192657599 674.4222343861 C 772.67567657599 674.4222343861 777.64442657599 673.7972343861 781.98817657599 672.5472343861 L 781.98817657599 679.5784843861 C 777.64442657599 680.8284843861 772.36317657599 681.4534843861 766.14442657599 681.4534843861 C 749.23817657599 681.4534843861 740.78505157599 673.0628593861 740.78505157599 656.2816093861 C 740.78505157599 640.2503593861 748.33192657599 632.2347343861 763.42567657599 632.2347343861 Z M 749.45692657599 652.1097343861 L 776.08192657599 652.1097343861 C 775.89442657599 643.4847343861 771.67567657599 639.1722343861 763.42567657599 639.1722343861 C 754.67567657599 639.1722343861 750.01942657599 643.4847343861 749.45692657599 652.1097343861 Z M 796.09755157599 681.4534843861 L 796.09755157599 632.2347343861 L 801.95692657599 632.2347343861 L 803.50380157599 638.5159843861 C 807.81630157599 634.3284843861 813.00380157599 632.2347343861 819.06630157599 632.2347343861 L 819.06630157599 639.4534843861 C 813.19130157599 639.4534843861 808.42567657599 641.5316093861 804.76942657599 645.6878593861 L 804.76942657599 681.4534843861 L 796.09755157599 681.4534843861 Z"/></svg>